<svg xmlns="http://www.w3.org/2000/svg" width="108" height="128" viewBox="-9 -9 18 18"><g transform="rotate(-32)" stroke-linecap="round"><path stroke-width="6" fill="transparent" stroke="#ff3e00" d="M0,0h1a 2,2 0,0,1 0,4h-5a 2,2 0,0,1 0,-4M0,0h-1a 2,2 0,0,1 0,-4h5a 2,2 0,0,1 0,4" /><path stroke-width="2" stroke="white" fill="transparent" d="M0,0h1a 2,2 0,0,1 0,4h-5a 2,2 0,0,1 0,-4M0,0h-1a 2,2 0,0,1 0,-4h5a 2,2 0,0,1 0,4" /><path fill="#ff3e00" d="M1,-3A5,5 0,0,1 6,2h-2A3,3 0,0,0 1,-1ZM-1,3A5,5 0,0,1 -6,-2h2A3,3 0,0,0 -1,1Z" /></g></svg>