<svg id="sapper" xmlns="http://www.w3.org/2000/svg" viewBox="0 0 107 128"><title>sapper-logo</title><g id="logo"><path id="back" d="M94.157,22.819c-10.4-14.885-30.941-19.3-45.792-9.835L22.283,29.608A29.921,29.921,0,0,0,8.764,49.651a31.507,31.507,0,0,0,3.108,20.231A30.006,30.006,0,0,0,7.4,81.065a31.892,31.892,0,0,0,5.448,24.116c10.4,14.887,30.942,19.3,45.791,9.835L84.717,98.392A29.915,29.915,0,0,0,98.235,78.349,31.522,31.522,0,0,0,95.13,58.117,30.019,30.019,0,0,0,99.6,46.935a31.878,31.878,0,0,0-5.447-24.116" style="fill:#009498"/><path id="front" d="M45.817,106.582A20.72,20.72,0,0,1,23.58,98.339a19.171,19.171,0,0,1-3.276-14.5,18.143,18.143,0,0,1,.623-2.435l.491-1.5,1.336.981a33.656,33.656,0,0,0,10.2,5.1l.97.294-.089.968a5.844,5.844,0,0,0,1.052,3.878,6.239,6.239,0,0,0,6.7,2.485,5.748,5.748,0,0,0,1.6-.7L69.27,76.281a5.43,5.43,0,0,0,2.451-3.631,5.794,5.794,0,0,0-.988-4.371,6.245,6.245,0,0,0-6.7-2.487,5.762,5.762,0,0,0-1.6.7l-9.953,6.345a19.06,19.06,0,0,1-5.3,2.326,20.719,20.719,0,0,1-22.237-8.243,19.171,19.171,0,0,1-3.277-14.5A17.992,17.992,0,0,1,29.8,40.37l26.08-16.623a19.017,19.017,0,0,1,5.3-2.329A20.72,20.72,0,0,1,83.42,29.661a19.171,19.171,0,0,1,3.276,14.5,18.292,18.292,0,0,1-.623,2.435l-.491,1.5-1.336-.979a33.616,33.616,0,0,0-10.2-5.1l-.97-.294.089-.968a5.853,5.853,0,0,0-1.052-3.878,6.239,6.239,0,0,0-6.695-2.485,5.748,5.748,0,0,0-1.6.7L37.73,51.719a5.421,5.421,0,0,0-2.449,3.63,5.785,5.785,0,0,0,.986,4.372,6.245,6.245,0,0,0,6.7,2.487,5.773,5.773,0,0,0,1.6-.7l9.952-6.342a18.984,18.984,0,0,1,5.3-2.328,20.719,20.719,0,0,1,22.237,8.243,19.171,19.171,0,0,1,3.277,14.5A18,18,0,0,1,77.2,87.632L51.117,104.253a19.017,19.017,0,0,1-5.3,2.329" style="fill:#fff"/></g></svg>