<svg id="svelte" xmlns="http://www.w3.org/2000/svg" viewBox="0 0 128 128"><title>svelte-128</title><g id="_128" data-name="128"><path id="back" d="M107.561,19.877C96.418,3.929,74.41-.8,58.5,9.34L30.553,27.151A32.06,32.06,0,0,0,16.068,48.626,33.766,33.766,0,0,0,19.4,70.3a32.145,32.145,0,0,0-4.8,11.981,34.174,34.174,0,0,0,5.836,25.839C31.584,124.072,53.591,128.8,69.5,118.66l27.945-17.811a32.056,32.056,0,0,0,14.485-21.475A33.778,33.778,0,0,0,108.6,57.7,32.149,32.149,0,0,0,113.4,45.716a34.161,34.161,0,0,0-5.836-25.839" style="fill:#ff3e00"/><path id="front" d="M55.768,109.623a22.2,22.2,0,0,1-23.825-8.831,20.55,20.55,0,0,1-3.511-15.539,19.568,19.568,0,0,1,.668-2.609l.527-1.605,1.431,1.051A36.053,36.053,0,0,0,41.99,87.552l1.039.316-.1,1.036a6.268,6.268,0,0,0,1.127,4.155,6.685,6.685,0,0,0,7.174,2.663,6.138,6.138,0,0,0,1.716-.755L80.9,77.158a5.819,5.819,0,0,0,2.625-3.89,6.208,6.208,0,0,0-1.058-4.684,6.69,6.69,0,0,0-7.176-2.664,6.178,6.178,0,0,0-1.714.754l-10.665,6.8a20.361,20.361,0,0,1-5.674,2.492,22.2,22.2,0,0,1-23.826-8.831A20.541,20.541,0,0,1,29.9,51.6,19.269,19.269,0,0,1,38.61,38.683L66.554,20.872a20.364,20.364,0,0,1,5.678-2.5,22.2,22.2,0,0,1,23.825,8.831,20.55,20.55,0,0,1,3.511,15.539,19.875,19.875,0,0,1-.668,2.609l-.527,1.6-1.431-1.049A36.012,36.012,0,0,0,86.01,40.448l-1.039-.316.1-1.036a6.277,6.277,0,0,0-1.127-4.155,6.685,6.685,0,0,0-7.174-2.663,6.138,6.138,0,0,0-1.716.755L47.1,50.842a5.808,5.808,0,0,0-2.624,3.89,6.2,6.2,0,0,0,1.056,4.684,6.69,6.69,0,0,0,7.176,2.664,6.208,6.208,0,0,0,1.717-.755l10.662-6.8a20.334,20.334,0,0,1,5.674-2.494,22.2,22.2,0,0,1,23.826,8.831A20.541,20.541,0,0,1,98.1,76.405a19.28,19.28,0,0,1-8.71,12.914L61.447,107.128a20.383,20.383,0,0,1-5.679,2.5" style="fill:#fff"/></g></svg>