<svg id="sapper" xmlns="http://www.w3.org/2000/svg" viewBox="0 0 256 300"><title>sapper-vertical</title><g id="vertical"><path id="logotype" d="M40.222,265.87a14.019,14.019,0,0,1-7.989-2.258,11.571,11.571,0,0,1-4.665-6.178l4.863-1.786a8.977,8.977,0,0,0,3.176,3.846,8.372,8.372,0,0,0,4.813,1.414,7.07,7.07,0,0,0,4.59-1.389,4.82,4.82,0,0,0,1.712-3.97,4.344,4.344,0,0,0-.471-2.01,6.011,6.011,0,0,0-1.067-1.514,7.215,7.215,0,0,0-1.836-1.215q-1.242-.62-2.059-.943T38.882,249q-1.986-.695-2.977-1.091a22.319,22.319,0,0,1-2.605-1.315,9.625,9.625,0,0,1-2.432-1.836,8.917,8.917,0,0,1-1.464-2.407,8.6,8.6,0,0,1,2.332-9.775,11.787,11.787,0,0,1,8.089-2.63,12.173,12.173,0,0,1,7.021,1.885,9.118,9.118,0,0,1,3.7,5.013l-4.764,1.587a5.549,5.549,0,0,0-2.307-2.555,7.752,7.752,0,0,0-4.044-.968A6.227,6.227,0,0,0,35.533,236a3.661,3.661,0,0,0-1.415,3.076,3.211,3.211,0,0,0,1.092,2.382,7.474,7.474,0,0,0,2.282,1.538q1.193.5,3.623,1.34,1.488.548,2.208.819t2.109.918a14.544,14.544,0,0,1,2.133,1.166,18.647,18.647,0,0,1,1.737,1.414,7.441,7.441,0,0,1,1.514,1.812,10.153,10.153,0,0,1,.893,2.232,10.258,10.258,0,0,1,.372,2.8,9.353,9.353,0,0,1-3.325,7.617A12.932,12.932,0,0,1,40.222,265.87Zm44.013-.6-2.779-7.989H67.414l-2.829,7.989H59.226L71.78,230.539h5.31l12.5,34.735ZM79.868,252.72l-4.217-11.81a27.735,27.735,0,0,1-1.191-3.92q-.447,1.786-1.191,3.92L69,252.72Zm19.253,12.554V230.539h13.944q5.9,0,8.683,3.077a11.272,11.272,0,0,1-.1,14.936q-2.879,3.227-8.584,3.226h-8.783v13.5Zm14.241-18.459a5.453,5.453,0,0,0,4.392-1.662,5.959,5.959,0,0,0,1.414-4,6.154,6.154,0,0,0-1.364-3.945q-1.365-1.711-4.442-1.712h-9.08v11.314Zm20.1,18.459V230.539H147.4q5.9,0,8.683,3.077a11.272,11.272,0,0,1-.1,14.936q-2.878,3.227-8.584,3.226h-8.783v13.5ZM147.7,246.815a5.453,5.453,0,0,0,4.392-1.662,5.959,5.959,0,0,0,1.414-4,6.154,6.154,0,0,0-1.364-3.945q-1.365-1.711-4.442-1.712h-9.08v11.314Zm21.089,18.459V230.539h21.536V235.4H173.949v9.528h10.569v4.863H173.949v10.618h17.466v4.863Zm33.791,0V230.539h14.639q5.906,0,8.56,2.928a11.089,11.089,0,0,1,.744,13.423,9.561,9.561,0,0,1-5.632,3.746l7.145,14.638H222.13l-6.847-14.191h-7.542v14.191Zm5.162-19.154h9.576a5.661,5.661,0,0,0,4.367-1.513,5.4,5.4,0,0,0,1.389-3.8,5.632,5.632,0,0,0-1.315-3.747q-1.314-1.561-4.441-1.563h-9.576Z" style="fill:#4a4a55"/><path id="back" d="M191.889,52.113c-16.342-23.391-48.621-30.324-71.958-15.455L78.944,62.781A47.023,47.023,0,0,0,57.7,94.277a49.521,49.521,0,0,0,4.884,31.793,47.144,47.144,0,0,0-7.034,17.573,50.1,50.1,0,0,0,8.56,37.9c16.346,23.393,48.623,30.323,71.958,15.455l40.987-26.123a47.014,47.014,0,0,0,21.243-31.5,49.536,49.536,0,0,0-4.88-31.794,47.128,47.128,0,0,0,7.031-17.572,50.1,50.1,0,0,0-8.56-37.9" style="fill:#009498"/><path id="front" d="M115.927,183.74a32.557,32.557,0,0,1-34.944-12.953A30.13,30.13,0,0,1,75.834,148a28.586,28.586,0,0,1,.98-3.828l.772-2.354,2.1,1.543a52.9,52.9,0,0,0,16.034,8.011l1.523.462-.14,1.52a9.187,9.187,0,0,0,1.653,6.094,9.8,9.8,0,0,0,10.521,3.905,9.037,9.037,0,0,0,2.518-1.106l40.988-26.12a8.537,8.537,0,0,0,3.851-5.706,9.108,9.108,0,0,0-1.552-6.869,9.81,9.81,0,0,0-10.525-3.907,9.012,9.012,0,0,0-2.515,1.105L126.4,130.719a29.886,29.886,0,0,1-8.323,3.655,32.556,32.556,0,0,1-34.943-12.953,30.129,30.129,0,0,1-5.149-22.789A28.267,28.267,0,0,1,90.761,79.694l40.984-26.122a29.864,29.864,0,0,1,8.328-3.66,32.557,32.557,0,0,1,34.944,12.953,30.13,30.13,0,0,1,5.149,22.789,28.926,28.926,0,0,1-.98,3.828l-.772,2.354-2.1-1.54a52.826,52.826,0,0,0-16.035-8.013l-1.523-.463.14-1.52a9.2,9.2,0,0,0-1.653-6.094A9.8,9.8,0,0,0,146.724,70.3a9.037,9.037,0,0,0-2.518,1.106l-40.988,26.12a8.524,8.524,0,0,0-3.848,5.7,9.1,9.1,0,0,0,1.549,6.87,9.811,9.811,0,0,0,10.525,3.907,9.042,9.042,0,0,0,2.518-1.106l15.639-9.967a29.8,29.8,0,0,1,8.322-3.658,32.556,32.556,0,0,1,34.943,12.953,30.13,30.13,0,0,1,5.149,22.79,28.282,28.282,0,0,1-12.775,18.94L124.255,180.08a29.864,29.864,0,0,1-8.328,3.66" style="fill:#fff"/></g></svg>