<svg id="sapper" xmlns="http://www.w3.org/2000/svg" viewBox="0 0 419 139"><title>sapper-logotype</title><path id="logotype" d="M58.756,100.339a24.082,24.082,0,0,1-13.72-3.877,19.874,19.874,0,0,1-8.011-10.61l8.352-3.068a15.41,15.41,0,0,0,5.454,6.6A14.368,14.368,0,0,0,59.1,91.817a12.142,12.142,0,0,0,7.882-2.385,8.276,8.276,0,0,0,2.94-6.818,7.444,7.444,0,0,0-.81-3.451,10.321,10.321,0,0,0-1.832-2.6,12.369,12.369,0,0,0-3.153-2.088q-2.131-1.063-3.536-1.619t-4.133-1.491q-3.409-1.193-5.113-1.874a38.571,38.571,0,0,1-4.474-2.259,16.559,16.559,0,0,1-4.176-3.153,15.277,15.277,0,0,1-2.513-4.133,14.766,14.766,0,0,1,4-16.787q5.114-4.516,13.89-4.517,7.328,0,12.058,3.238a15.665,15.665,0,0,1,6.349,8.608L68.3,53.214a9.521,9.521,0,0,0-3.963-4.388,13.3,13.3,0,0,0-6.944-1.663,10.7,10.7,0,0,0-6.69,1.875,6.29,6.29,0,0,0-2.428,5.284,5.511,5.511,0,0,0,1.874,4.09,12.866,12.866,0,0,0,3.919,2.642q2.047.852,6.222,2.3,2.555.939,3.791,1.406T67.7,66.337a25.1,25.1,0,0,1,3.664,2,32.066,32.066,0,0,1,2.983,2.429,12.709,12.709,0,0,1,2.6,3.111,17.39,17.39,0,0,1,1.534,3.834,17.611,17.611,0,0,1,.639,4.815q0,8.353-5.71,13.08T58.756,100.339Zm75.585-1.023L129.569,85.6H105.453L100.6,99.316h-9.2l21.559-59.652h9.118l21.475,59.652Zm-7.5-21.559L119.6,57.475a47.872,47.872,0,0,1-2.045-6.732q-.768,3.067-2.045,6.732L108.18,77.757Zm33.063,21.559V39.664h23.947q10.138,0,14.912,5.285A18.621,18.621,0,0,1,203.536,57.9a18.524,18.524,0,0,1-4.942,12.7q-4.944,5.541-14.742,5.54H168.769V99.316Zm24.457-31.7q5.115,0,7.542-2.855a10.23,10.23,0,0,0,2.429-6.86,10.558,10.558,0,0,0-2.344-6.775q-2.343-2.94-7.627-2.94H168.769v19.43Zm34.511,31.7V39.664h23.946q10.14,0,14.913,5.285A18.621,18.621,0,0,1,262.5,57.9a18.524,18.524,0,0,1-4.942,12.7q-4.944,5.541-14.743,5.54H227.736V99.316Zm24.457-31.7q5.113,0,7.542-2.855A10.235,10.235,0,0,0,253.3,57.9a10.558,10.558,0,0,0-2.344-6.775q-2.343-2.94-7.627-2.94H227.736v19.43Zm36.216,31.7V39.664H316.53v8.352H288.409V64.377H306.56v8.352H288.409V90.965h30v8.351Zm58.031,0V39.664h25.139q10.141,0,14.7,5.029A18.071,18.071,0,0,1,381.975,57.3a17.92,17.92,0,0,1-3.281,10.44,16.418,16.418,0,0,1-9.671,6.434l12.27,25.138H371.152L359.393,74.944H346.441V99.316Zm8.864-32.894h16.446q5.112,0,7.5-2.6a9.276,9.276,0,0,0,2.386-6.52,9.674,9.674,0,0,0-2.258-6.434q-2.259-2.683-7.627-2.684H346.441Z" style="fill:#4a4a55"/></svg>