<svg id="sapper" xmlns="http://www.w3.org/2000/svg" viewBox="0 0 532 139"><title>sapper-horizontal</title><g id="horizontal"><path id="logotype" d="M172.443,100.339a24.079,24.079,0,0,1-13.72-3.877,19.874,19.874,0,0,1-8.011-10.61l8.352-3.068a15.41,15.41,0,0,0,5.454,6.6,14.368,14.368,0,0,0,8.266,2.428,12.142,12.142,0,0,0,7.882-2.385,8.279,8.279,0,0,0,2.94-6.818,7.457,7.457,0,0,0-.81-3.451,10.321,10.321,0,0,0-1.832-2.6,12.369,12.369,0,0,0-3.153-2.088q-2.132-1.063-3.536-1.619t-4.133-1.491q-3.409-1.193-5.113-1.874a38.571,38.571,0,0,1-4.474-2.259,16.541,16.541,0,0,1-4.176-3.153,15.277,15.277,0,0,1-2.513-4.133,14.766,14.766,0,0,1,4-16.787q5.113-4.516,13.89-4.517,7.327,0,12.058,3.238a15.658,15.658,0,0,1,6.348,8.608l-8.18,2.726a9.521,9.521,0,0,0-3.963-4.388,13.3,13.3,0,0,0-6.944-1.663,10.7,10.7,0,0,0-6.69,1.875,6.29,6.29,0,0,0-2.429,5.284,5.511,5.511,0,0,0,1.874,4.09,12.869,12.869,0,0,0,3.92,2.642q2.048.852,6.222,2.3,2.554.939,3.791,1.406t3.622,1.576a25.1,25.1,0,0,1,3.664,2,32.066,32.066,0,0,1,2.983,2.429,12.709,12.709,0,0,1,2.6,3.111,17.342,17.342,0,0,1,1.533,3.834,17.573,17.573,0,0,1,.64,4.815q0,8.353-5.71,13.08T172.443,100.339Zm75.585-1.023L243.256,85.6H219.14l-4.857,13.719h-9.2l21.559-59.652h9.118l21.475,59.652Zm-7.5-21.559-7.243-20.282a47.872,47.872,0,0,1-2.045-6.732q-.768,3.067-2.045,6.732l-7.329,20.282Zm33.063,21.559V39.664h23.947q10.139,0,14.912,5.285A18.621,18.621,0,0,1,317.223,57.9a18.524,18.524,0,0,1-4.942,12.7q-4.944,5.541-14.742,5.54H282.456V99.316Zm24.457-31.7q5.114,0,7.542-2.855a10.235,10.235,0,0,0,2.429-6.86,10.558,10.558,0,0,0-2.344-6.775q-2.343-2.94-7.627-2.94H282.456v19.43Zm34.511,31.7V39.664h23.946q10.14,0,14.912,5.285A18.618,18.618,0,0,1,376.191,57.9a18.529,18.529,0,0,1-4.942,12.7q-4.944,5.541-14.743,5.54H341.423V99.316Zm24.457-31.7q5.113,0,7.542-2.855a10.235,10.235,0,0,0,2.429-6.86,10.558,10.558,0,0,0-2.344-6.775q-2.343-2.94-7.627-2.94H341.423v19.43Zm36.216,31.7V39.664h36.984v8.352H402.1V64.377h18.151v8.352H402.1V90.965h30v8.351Zm58.031,0V39.664H476.4q10.141,0,14.7,5.029A18.071,18.071,0,0,1,495.662,57.3a17.92,17.92,0,0,1-3.281,10.44,16.417,16.417,0,0,1-9.672,6.434L494.98,99.316H484.839L473.08,74.944H460.127V99.316Zm8.863-32.894h16.447q5.112,0,7.5-2.6a9.275,9.275,0,0,0,2.385-6.52A9.674,9.674,0,0,0,484.2,50.87q-2.259-2.683-7.627-2.684H460.127Z" style="fill:#4a4a55"/><path id="back" d="M110.286,28.319c-10.4-14.885-30.941-19.3-45.792-9.835L38.412,35.108A29.921,29.921,0,0,0,24.893,55.151,31.514,31.514,0,0,0,28,75.382a29.987,29.987,0,0,0-4.476,11.183,31.888,31.888,0,0,0,5.447,24.116c10.4,14.887,30.942,19.3,45.791,9.835l26.083-16.624a29.92,29.92,0,0,0,13.519-20.043,31.529,31.529,0,0,0-3.106-20.232,30,30,0,0,0,4.474-11.182,31.878,31.878,0,0,0-5.447-24.116" style="fill:#009498"/><path id="front" d="M61.946,112.082a20.72,20.72,0,0,1-22.237-8.243,19.176,19.176,0,0,1-3.276-14.5,18.143,18.143,0,0,1,.623-2.435l.491-1.5,1.337.981a33.633,33.633,0,0,0,10.2,5.1l.969.294-.089.968a5.844,5.844,0,0,0,1.052,3.878,6.24,6.24,0,0,0,6.7,2.485,5.748,5.748,0,0,0,1.6-.7L85.4,81.781A5.43,5.43,0,0,0,87.85,78.15a5.794,5.794,0,0,0-.988-4.371,6.244,6.244,0,0,0-6.7-2.487,5.737,5.737,0,0,0-1.6.7l-9.954,6.345a19.047,19.047,0,0,1-5.3,2.326,20.72,20.72,0,0,1-22.237-8.243,19.171,19.171,0,0,1-3.277-14.5A17.992,17.992,0,0,1,45.932,45.87L72.013,29.247a19.011,19.011,0,0,1,5.3-2.329,20.719,20.719,0,0,1,22.237,8.243,19.176,19.176,0,0,1,3.277,14.5A18.453,18.453,0,0,1,102.2,52.1l-.491,1.5-1.336-.979a33.616,33.616,0,0,0-10.2-5.1l-.97-.294.09-.968a5.859,5.859,0,0,0-1.052-3.878,6.24,6.24,0,0,0-6.695-2.485,5.742,5.742,0,0,0-1.6.7L53.859,57.219a5.425,5.425,0,0,0-2.449,3.63,5.79,5.79,0,0,0,.986,4.372,6.245,6.245,0,0,0,6.7,2.487,5.773,5.773,0,0,0,1.6-.7l9.952-6.342a18.978,18.978,0,0,1,5.3-2.328A20.718,20.718,0,0,1,98.18,66.576a19.171,19.171,0,0,1,3.277,14.5,18,18,0,0,1-8.13,12.054L67.246,109.753a19,19,0,0,1-5.3,2.329" style="fill:#fff"/></g></svg>