<svg id="svelte" xmlns="http://www.w3.org/2000/svg" viewBox="0 0 256 300"><title>svelte-vertical</title><g id="vertical"><path id="logotype" d="M44.413,265.87a14.026,14.026,0,0,1-7.989-2.257,11.579,11.579,0,0,1-4.665-6.178l4.863-1.787a8.977,8.977,0,0,0,3.176,3.846,8.364,8.364,0,0,0,4.813,1.414,7.068,7.068,0,0,0,4.59-1.389,4.82,4.82,0,0,0,1.712-3.97,4.344,4.344,0,0,0-.471-2.01,6.011,6.011,0,0,0-1.067-1.514,7.215,7.215,0,0,0-1.836-1.215q-1.242-.62-2.059-.943T43.073,249q-1.986-.693-2.977-1.091a22.319,22.319,0,0,1-2.6-1.315,9.6,9.6,0,0,1-2.432-1.836,8.917,8.917,0,0,1-1.464-2.407,8.6,8.6,0,0,1,2.332-9.775,11.787,11.787,0,0,1,8.089-2.63,12.173,12.173,0,0,1,7.021,1.885,9.113,9.113,0,0,1,3.7,5.013l-4.764,1.587a5.543,5.543,0,0,0-2.307-2.555,7.749,7.749,0,0,0-4.044-.968,6.227,6.227,0,0,0-3.9,1.092,3.661,3.661,0,0,0-1.415,3.076,3.21,3.21,0,0,0,1.092,2.382A7.508,7.508,0,0,0,41.683,243q1.193.495,3.623,1.339,1.488.548,2.208.819t2.109.918a14.564,14.564,0,0,1,2.134,1.166,18.815,18.815,0,0,1,1.736,1.415,7.375,7.375,0,0,1,1.514,1.811A10.1,10.1,0,0,1,55.9,252.7a10.264,10.264,0,0,1,.372,2.8,9.35,9.35,0,0,1-3.325,7.617A12.932,12.932,0,0,1,44.413,265.87Zm31.807-.6L64.31,230.539h5.559l7.889,24.216a37.456,37.456,0,0,1,1.092,3.97,37.217,37.217,0,0,1,1.092-3.97l7.791-24.216h5.508l-11.86,34.736Zm27.54,0V230.539H125.3V235.4H108.921v9.528H119.49v4.863H108.921v10.619h17.466v4.863Zm35.777,0V230.539H144.7v29.774h16.971v4.962ZM181.12,235.5v29.774h-5.161V235.5h-9.825v-4.962h24.811V235.5Zm20.493,29.774V230.539H223.15V235.4H206.775v9.528h10.569v4.863H206.775v10.619h17.466v4.863Z" style="fill:#4a4a55"/><path id="back" d="M191.889,52.089C175.547,28.7,143.268,21.765,119.931,36.634L78.944,62.757A47.023,47.023,0,0,0,57.7,94.253a49.521,49.521,0,0,0,4.884,31.793,47.144,47.144,0,0,0-7.034,17.573,50.1,50.1,0,0,0,8.56,37.9c16.346,23.393,48.623,30.323,71.958,15.455l40.987-26.123a47.014,47.014,0,0,0,21.243-31.5,49.536,49.536,0,0,0-4.88-31.794,47.128,47.128,0,0,0,7.031-17.572,50.1,50.1,0,0,0-8.56-37.9" style="fill:#ff3e00"/><path id="front" d="M115.927,183.716a32.557,32.557,0,0,1-34.944-12.953,30.13,30.13,0,0,1-5.149-22.789,28.586,28.586,0,0,1,.98-3.828l.772-2.354,2.1,1.543a52.9,52.9,0,0,0,16.034,8.011l1.523.462-.14,1.52a9.187,9.187,0,0,0,1.653,6.094,9.8,9.8,0,0,0,10.521,3.905,9.037,9.037,0,0,0,2.518-1.106l40.988-26.12a8.537,8.537,0,0,0,3.851-5.706,9.108,9.108,0,0,0-1.552-6.869,9.81,9.81,0,0,0-10.525-3.907,9.012,9.012,0,0,0-2.515,1.105L126.4,130.7a29.886,29.886,0,0,1-8.323,3.655A32.556,32.556,0,0,1,83.134,121.4a30.129,30.129,0,0,1-5.149-22.789A28.267,28.267,0,0,1,90.761,79.67l40.984-26.122a29.864,29.864,0,0,1,8.328-3.66,32.557,32.557,0,0,1,34.944,12.953,30.13,30.13,0,0,1,5.149,22.789,28.926,28.926,0,0,1-.98,3.828l-.772,2.354-2.1-1.54a52.851,52.851,0,0,0-16.035-8.014l-1.523-.462.14-1.52a9.2,9.2,0,0,0-1.653-6.094,9.8,9.8,0,0,0-10.521-3.905,9.037,9.037,0,0,0-2.518,1.106L103.218,97.5a8.524,8.524,0,0,0-3.848,5.7,9.1,9.1,0,0,0,1.549,6.87,9.811,9.811,0,0,0,10.525,3.907,9.042,9.042,0,0,0,2.518-1.106l15.639-9.967a29.8,29.8,0,0,1,8.322-3.658,32.556,32.556,0,0,1,34.943,12.953A30.13,30.13,0,0,1,178.015,135a28.282,28.282,0,0,1-12.775,18.94l-40.985,26.119a29.864,29.864,0,0,1-8.328,3.66" style="fill:#fff"/></g></svg>