<svg id="svelte" xmlns="http://www.w3.org/2000/svg" viewBox="0 0 406 139"><title>svelte-logotype</title><path id="logotype" d="M59.456,100.338a24.082,24.082,0,0,1-13.72-3.877,19.869,19.869,0,0,1-8.01-10.609l8.351-3.068a15.408,15.408,0,0,0,5.454,6.6A14.369,14.369,0,0,0,59.8,91.817a12.137,12.137,0,0,0,7.882-2.386,8.274,8.274,0,0,0,2.94-6.817,7.46,7.46,0,0,0-.809-3.452,10.34,10.34,0,0,0-1.832-2.6,12.369,12.369,0,0,0-3.154-2.088q-2.132-1.063-3.536-1.619t-4.133-1.491q-3.41-1.193-5.113-1.874a38.571,38.571,0,0,1-4.474-2.259,16.533,16.533,0,0,1-4.175-3.153,15.253,15.253,0,0,1-2.514-4.133,14.766,14.766,0,0,1,4.005-16.787Q50,38.643,58.774,38.642q7.328,0,12.058,3.238a15.66,15.66,0,0,1,6.349,8.608L69,53.214a9.521,9.521,0,0,0-3.963-4.388,13.3,13.3,0,0,0-6.944-1.663,10.7,10.7,0,0,0-6.69,1.875,6.29,6.29,0,0,0-2.428,5.284,5.511,5.511,0,0,0,1.874,4.09,12.857,12.857,0,0,0,3.92,2.642q2.046.852,6.221,2.3,2.554.939,3.791,1.406T68.4,66.337a25.1,25.1,0,0,1,3.664,2,32.066,32.066,0,0,1,2.983,2.429,12.683,12.683,0,0,1,2.6,3.11,17.39,17.39,0,0,1,1.534,3.834,17.618,17.618,0,0,1,.639,4.816q0,8.352-5.71,13.08T59.456,100.338Zm54.622-1.022L93.626,39.664h9.545L116.72,81.25a64.791,64.791,0,0,1,1.875,6.818,63.829,63.829,0,0,1,1.875-6.818l13.379-41.586h9.459L122.94,99.316Zm47.294,0V39.664h36.984v8.352H170.235V64.377h18.151v8.352H170.235V90.964H200.23v8.352Zm61.44,0V39.664h8.864v51.13h29.143v8.522Zm71.411-51.13v51.13h-8.864V48.186H268.487V39.664H311.1v8.522Zm35.193,51.13V39.664H366.4v8.352H338.279V64.377H356.43v8.352H338.279V90.964h30v8.352Z" style="fill:#4a4a55"/></svg>